<svg xmlns="http://www.w3.org/2000/svg" viewBox="0 0 257.49 376.1"><defs><style>.cls-1,.cls-3,.cls-4{fill:#fff;}.cls-2{fill:#fc636b;}.cls-3{font-size:30px;font-family:Avenir-Medium, Avenir;font-weight:500;letter-spacing:0.08em;}.cls-4{font-size:48.93px;stroke:#fff;stroke-miterlimit:10;stroke-width:0.75px;font-family:PTSans-CaptionBold, PT Sans Caption;font-weight:700;letter-spacing:0.03em;}.cls-5{letter-spacing:0.07em;}</style></defs><title>Asset 4</title><g id="Layer_2" data-name="Layer 2"><g id="Layer_1-2" data-name="Layer 1"><g id="XZeY5T"><path class="cls-1" d="M34.91,169.84a13.41,13.41,0,0,0-16.76,9.85,13.8,13.8,0,0,0,9.52,16.74A14.08,14.08,0,0,0,44.83,186.3,13.72,13.72,0,0,0,34.91,169.84Z"/><path class="cls-2" d="M121,215.81a13.83,13.83,0,0,0-16.64,9.69,13.81,13.81,0,0,0,26.7,7.08C133,225.41,128.43,217.72,121,215.81Z"/><path class="cls-2" d="M10.22,99.83c6,2.25,14.69-2.55,16.32-9.31A13.76,13.76,0,0,0,16.81,74,13.64,13.64,0,0,0,.45,83.37C-1.48,90.35,3,97.84,10.22,99.83Z"/><path class="cls-1" d="M220.06,193.7c1.82-6.65-2.75-14.6-9.39-16.33s-14.36,2.75-16.18,9.68c-1.76,6.66,2.67,14.94,9.19,16S218.27,201.7,220.06,193.7Z"/><path class="cls-1" d="M90.24,16.52A13.24,13.24,0,0,0,80.7.37c-6.46-1.72-14.12,2.78-16,9.4s2.61,13.86,9.62,16.17C79.89,27.76,89.16,22.71,90.24,16.52Z"/><path class="cls-1" d="M49.39,186.15c-1.72,3.39-3.17,6.22-4.86,9.55,6,5.74,13.56,8.58,21.78,7.28,9-1.42,17.85-4.23,26.68-6.71,1.1-.31,1.72-2.35,2.56-3.59-1.51-.88-3.1-2.61-4.52-2.48a143.82,143.82,0,0,0-16.5,2.52C65.12,194.69,56.5,193.93,49.39,186.15Z"/><path class="cls-2" d="M131.47,217l4.33,9.64A27.41,27.41,0,0,0,157,210.91c3.3-6.73,6.23-13.66,8.94-20.66.57-1.47-.57-3.6-.92-5.43-1.67.84-3.93,1.27-4.88,2.62a89.34,89.34,0,0,0-6.2,10.86C149.05,207.71,143.66,216.42,131.47,217Z"/><path class="cls-2" d="M21.9,103.28c-2,.52-3.61,1.28-5.22,1.28-5,0-5.14,3-4.46,6.67a29.33,29.33,0,0,0,11.12,18.58c5.65,4.31,11.38,8.52,17.27,12.48,1.29.86,3.43.44,5.18.61-.38-1.72-.18-4-1.23-5.08-4.72-4.71-9.78-9.1-14.75-13.55C23.65,118.76,21,111.94,21.9,103.28Z"/><path class="cls-1" d="M68.63,29.67c-.12-.45-.11-.63-.2-.71-6.56-5.91-7.77-5.62-13,1.64s-5.21,15.31-4.83,23.56c.21,4.57.24,9.17.86,13.68.23,1.68,1.92,3.15,2.94,4.72.92-1.49,2.49-2.91,2.64-4.47.57-5.78.64-11.6,1-17.41.44-7.52,2.91-14.12,8.87-19.09A17.52,17.52,0,0,0,68.63,29.67Z"/><path class="cls-2" d="M208.21,171.86c1.25.18,1.8.25,2.34.35,7.13,1.34,7.79,1.16,8.95-6.22a29.39,29.39,0,0,0-1.22-13.64c-2.35-7.55-7-13.75-9.72-21a7,7,0,0,0-1.95-3.16c-1.14-.82-2.71-1-4.09-1.54-.31,1.32-1.2,2.84-.83,3.92a110.8,110.8,0,0,0,5.51,13.93A31.25,31.25,0,0,1,208.21,171.86Z"/><path class="cls-1" d="M18.29,170.47c3.09-2.07,5.73-3.84,8.38-5.6l1,1.13a16,16,0,0,0-1.22-2.41c-7.12-9.77-10.57-20.75-11.21-32.76-.09-1.68-1.71-3.27-2.63-4.9-1.33,1.5-3.52,2.86-3.81,4.54a34,34,0,0,0-.13,10.75A96.64,96.64,0,0,0,18.29,170.47Z"/><path class="cls-2" d="M100.18,231c.59-3.3,1.13-6.28,1.75-9.78-1.93-.21-3.91-.49-5.9-.65a55.55,55.55,0,0,1-28.44-11,8.1,8.1,0,0,0-2.82-1.71c-1.08-.22-2.71-.16-3.34.51a3.63,3.63,0,0,0-.3,3.32,16.38,16.38,0,0,0,3.2,4.32C70.09,221.91,91.49,230.85,100.18,231Z"/><path class="cls-2" d="M24.48,72.84c1.71-4.32,2.7-8.85,5.1-12.43C34,53.91,39.11,47.93,44,41.82,45.3,40.26,48,39,46,36.83c-.79-.86-3.86-.77-5.05.08-4,2.86-8.24,5.76-11.21,9.57C25,52.58,21.25,59.47,17,65.92c-2,3-.86,4.12,2.11,4.86A53,53,0,0,1,24.48,72.84Z"/><path class="cls-1" d="M197.41,205.5c-4.92-6.47-6.24-6.67-11.62-1.5-7.39,7.11-16.31,11.35-25.93,14.46-1.31.42-2.31,1.78-3.46,2.71,1.35.82,2.82,2.49,4,2.3a56.69,56.69,0,0,0,12.38-3A86.55,86.55,0,0,0,197.41,205.5Z"/><path class="cls-1" d="M93.49,3.84c.63,2.79,1.2,5.33,1.85,8.24,5.36-1.32,10.64-3.32,16-3.79,6.85-.59,13.81.19,20.72.09,1.56,0,3.11-1.26,4.85-2C131.15-.47,106.29-1.64,93.49,3.84Z"/><path class="cls-2" d="M183.75,28.1a13.23,13.23,0,0,0,7.1-17.36c-2.53-6.19-10.75-9.56-17.13-7s-9.46,10.47-7.06,17.45C168.54,26.66,178.17,31,183.75,28.1Z"/><path class="cls-2" d="M160.21,18.84c.29-.37.44-.47.45-.59.75-8.8-.22-9.58-9.17-9.37S136.15,14,129.8,19.27c-3.51,2.93-7.16,5.74-10.38,9-1.19,1.2-1.35,3.43-2,5.2,1.73-.17,3.81.22,5.15-.6,5-3,9.63-6.51,14.46-9.75,6.25-4.2,13-6.21,20.57-4.47A17.84,17.84,0,0,0,160.21,18.84Z"/><path class="cls-2" d="M195.82,23l-5.45,6.45C194.67,33,199.45,36,203.09,40c4.61,5.1,8.2,11.11,12.46,16.55,1,1.23,2.88,1.72,4.53,2.65C222,50.42,207.93,29.91,195.82,23Z"/><path class="cls-1" d="M232.45,112.53A13.24,13.24,0,0,0,251,109.62c4-5.38,2.61-14.16-2.87-18.3s-13.85-2.67-18.58,3C225.81,98.77,227.09,109.25,232.45,112.53Z"/><path class="cls-1" d="M228.18,87.6c.46.06.63.13.73.08,7.91-3.92,8.09-5.16,3.26-12.7S219.86,64.5,212.05,61.82c-4.33-1.49-8.61-3.16-13-4.24-1.64-.4-3.63.62-5.47,1,1.05,1.4,1.79,3.38,3.18,4.09,5.17,2.67,10.56,4.87,15.83,7.32,6.83,3.18,12.06,7.91,14.49,15.29A17.31,17.31,0,0,0,228.18,87.6Z"/><path class="cls-1" d="M243,120.23l-8.34-1.32c-.74,5.48-.83,11.12-2.39,16.32-2,6.58-5.26,12.77-7.7,19.23-.56,1.46,0,3.35.08,5.25C233.19,156.83,243.43,134.15,243,120.23Z"/><path class="cls-2" d="M219.73,200.8c-5.31,8.64-4.95,10.26,3.48,14.18,11.59,5.4,20.53,13.86,28.47,23.64,1.08,1.33,3.11,1.89,4.7,2.8.35-1.93,1.63-4.39.88-5.69a70.48,70.48,0,0,0-9.08-13A108,108,0,0,0,219.73,200.8Z"/></g><text class="cls-3" transform="translate(41.98 363.83) scale(0.98 1)">Foundation</text><path class="cls-2" d="M74.13,319.54c.92,1.2,1.85,2.39,2.84,3.67L70,329l-8.2-10.29,1.2-.52a11.61,11.61,0,0,0,6.5-12c-.63-3.49-3-5.44-6.78-5.6a11,11,0,0,0-11,12.89A6.53,6.53,0,0,0,57.51,319a3.44,3.44,0,0,1,1.85,1c1.54,1.79,3,3.68,4.44,5.54.05.06.05.15.1.33a20.37,20.37,0,0,1-7.83.79c-3.81-.26-7.31-1.35-10-4.19a13,13,0,0,1-3.45-8.75c-.54-10.69,6.5-19.06,17.16-20.45a22.42,22.42,0,0,1,10.39.77,12.5,12.5,0,0,1,8.6,11.55,19.28,19.28,0,0,1-4,12.92l-.46.61C74.26,319.22,74.23,319.31,74.13,319.54Z"/><text class="cls-4" transform="matrix(0.95, 0, -0.3, 0.95, 76.05, 327.77)">C<tspan class="cls-5" x="31.02" y="0">ARE</tspan></text></g></g></svg>